<?xml version="1.0" encoding="utf-8"?>
<!-- Generator: Adobe Illustrator 19.2.1, SVG Export Plug-In . SVG Version: 6.00 Build 0)  -->
<svg version="1.1" id="layer" xmlns="http://www.w3.org/2000/svg" xmlns:xlink="http://www.w3.org/1999/xlink" x="0px" y="0px"
	 viewBox="0 0 652 652" style="enable-background:new 0 0 652 652;" xml:space="preserve">
<style type="text/css">
	.st0{fill:#fff;}
</style>
<g id="Navigation">
	<g id="_x31_680---Charcoal-Redline" transform="translate(-777.000000, -16.000000)">
		<g id="_x28_-42px-_x29_-W_x2B_SQ" transform="translate(777.000000, 16.000000)">
			<path id="Don_x27_t-upgroup" class="st0" d="M25.4,403.1c0-7.7,4.6-13.6,12.3-13.6c7.3,0,11.8,5.2,11.8,12.2c0,0.8,0,1.5-0.1,2
				H29.8c0,5.6,3.6,8.9,8.4,8.9c2.9,0,5.5-1.1,7.4-3.5l2.8,2.6c-2.4,2.9-5.9,4.8-10.4,4.8C30,416.5,25.4,410.7,25.4,403.1z
				 M29.9,400.5h15.3c-0.3-5-3.7-7.3-7.6-7.3C33.2,393.2,30.3,396.2,29.9,400.5z M84.1,386.7l-3.5,2.5c-2.2-3.3-5.6-5.3-9.9-5.3
				c-7.5,0-12.1,5.7-12.1,14.2c0,8.5,4.7,14.2,12.3,14.2c4.4,0,7.5-1.9,9.9-5.3l3.6,2.5c-3.2,4.6-7.7,7-13.5,7
				c-10.3,0-17-7.7-17-18.4c0-10.6,6.7-18.4,16.8-18.4C76.5,379.8,81.1,382.3,84.1,386.7z M112.8,403c0,7.7-4.8,13.5-12.4,13.5
				c-7.6,0-12.3-5.8-12.3-13.5c0-7.8,4.7-13.5,12.3-13.5C108,389.5,112.8,395.2,112.8,403z M108.3,403c0-5.5-2.9-9.7-7.9-9.7
				c-5,0-7.9,4.2-7.9,9.7c0,5.4,2.9,9.7,7.9,9.7C105.4,412.7,108.3,408.5,108.3,403z M139.4,415.9h-4.2v-16c0-3.4-1.1-6.5-5.3-6.5
				c-4,0-7,3.2-7,7.8v14.7h-4.2v-25.8h4.2v3.7c1.7-2.6,4.6-4.3,8-4.3c3.6,0,6.3,1.7,7.5,4.9c1.7-2.7,4.9-4.9,8.8-4.9
				c5.2,0,8.5,3.4,8.5,9.4v17h-4.2v-16c0-3.4-1.1-6.5-5.3-6.5c-4,0-7,3.2-7,7.8V415.9z M183.8,415.9h-4.2v-16c0-3.4-1.1-6.5-5.3-6.5
				c-4,0-7,3.2-7,7.8v14.7h-4.2v-25.8h4.2v3.7c1.7-2.6,4.6-4.3,8-4.3c3.6,0,6.3,1.7,7.5,4.9c1.7-2.7,4.9-4.9,8.8-4.9
				c5.2,0,8.5,3.4,8.5,9.4v17h-4.2v-16c0-3.4-1.1-6.5-5.3-6.5c-4,0-7,3.2-7,7.8V415.9z M206,403.1c0-7.7,4.6-13.6,12.3-13.6
				c7.3,0,11.8,5.2,11.8,12.2c0,0.8,0,1.5-0.1,2h-19.6c0,5.6,3.6,8.9,8.4,8.9c2.9,0,5.5-1.1,7.4-3.5l2.8,2.6
				c-2.4,2.9-5.9,4.8-10.4,4.8C210.6,416.5,206,410.7,206,403.1z M210.5,400.5h15.3c-0.3-5-3.7-7.3-7.6-7.3
				C213.8,393.2,210.9,396.2,210.5,400.5z M251.1,390.5l-1,3.8c-0.7-0.4-2-0.7-3.1-0.7c-3.7,0-6.9,3-6.9,9v13.3H236v-25.8h4.2v3.8
				c1.4-2.5,4.3-4.3,7.5-4.3C249.2,389.6,250.5,390.1,251.1,390.5z M275.9,394.8l-3.1,2.2c-1.5-2.3-3.8-3.7-6.8-3.7
				c-5.1,0-8.2,4-8.2,9.6c0,5.7,3.1,9.6,8.2,9.6c3.1,0,5.4-1.5,6.9-3.7l3.1,2.3c-2.2,3.1-5.7,5.2-10.2,5.2
				c-7.6,0-12.4-5.8-12.4-13.5c0-7.7,4.9-13.5,12.4-13.5C270.3,389.5,273.8,391.7,275.9,394.8z M279.7,403.1
				c0-7.7,4.6-13.6,12.3-13.6c7.3,0,11.8,5.2,11.8,12.2c0,0.8,0,1.5-0.1,2h-19.6c0,5.6,3.6,8.9,8.4,8.9c2.9,0,5.5-1.1,7.4-3.5
				l2.8,2.6c-2.4,2.9-5.9,4.8-10.4,4.8C284.4,416.5,279.7,410.7,279.7,403.1z M284.3,400.5h15.3c-0.3-5-3.7-7.3-7.6-7.3
				C287.5,393.2,284.6,396.2,284.3,400.5z M323.1,380.4h4.2v13.7c2.1-3.2,5.4-4.6,8.8-4.6c7.2,0,11.7,5.8,11.7,13.5
				s-4.6,13.5-11.7,13.5c-3.4,0-6.7-1.4-8.8-4.6v4h-4.2V380.4z M327.3,403c0,5.4,2.9,9.6,8.1,9.6c5.3,0,7.9-4.2,7.9-9.6
				c0-5.3-2.6-9.7-7.9-9.7S327.3,397.7,327.3,403z M353.1,424.5l0.9-3.5c0.5,0.2,1.1,0.4,1.6,0.4c1.9,0,3.1-1.2,4.8-5.6l-10.1-25.7
				h4.7l7.6,20.5l7.6-20.5h4.6l-10.4,26.4c-2.4,6.2-4.3,8.5-8.1,8.5C354.7,425,353.6,424.8,353.1,424.5z M401,425.4
				c-4.8,0-8.7-3.9-8.7-8.7V382c0-4.8,3.9-8.7,8.7-8.7h34.7c4.8,0,8.7,3.9,8.7,8.7v34.7c0,4.8-3.9,8.7-8.7,8.7H401z M401.8,385.5
				v27.6c0,1.5,1.2,2.7,2.7,2.7h27.6c1.5,0,2.7-1.2,2.7-2.7v-27.6c0-1.5-1.2-2.7-2.7-2.7h-27.6C403,382.8,401.8,384,401.8,385.5z
				 M423.9,392.2c0.9,0,1.6,0.7,1.6,1.6v11c0,0.9-0.7,1.6-1.6,1.6h-11c-0.9,0-1.6-0.7-1.6-1.6v-11c0-0.9,0.7-1.6,1.6-1.6H423.9z
				 M473.3,383.9c-4.1,0-7.5,1.9-7.5,5.5c0,2.4,1.6,3.7,4.2,4.7c5.6,2.1,16.6,2.7,16.6,11.8c0,6.2-4.9,10.7-12.9,10.7
				c-5.9,0-10.8-2.5-13.5-6.8l3.6-2.5c2.4,3.9,6.6,5.2,10.1,5.2c5,0,8.1-2.5,8.1-6.3c0-4-3.5-5.1-8.6-6.4
				c-5.8-1.3-12.2-3.2-12.2-10.2c0-6.5,5.7-9.8,12.2-9.8c5.1,0,9.5,2,12.4,5.9l-3.4,2.5C480.3,385.5,477.1,383.9,473.3,383.9z
				 M516.7,424.6h-4.2v-12.7c-2.1,3.2-5.4,4.6-8.8,4.6c-7.2,0-11.6-5.8-11.6-13.5s4.5-13.5,11.6-13.5c3.5,0,6.7,1.4,8.8,4.6v-4h4.2
				V424.6z M512.5,403c0-5.4-2.9-9.6-8.2-9.6c-5.2,0-7.9,4.3-7.9,9.6c0,5.3,2.6,9.6,7.9,9.6C509.7,412.6,512.5,408.3,512.5,403z
				 M542.4,390.1h4.2v25.8h-4.2V412c-1.8,2.7-4.8,4.5-8.6,4.5c-5.4,0-8.8-3.6-8.8-9.7v-16.7h4.2v15.7c0,3.6,1.1,6.8,5.6,6.8
				c4.4,0,7.7-3.2,7.7-8.1V390.1z M574.5,415.9h-4.1v-3.2c-1.8,2.6-4.5,3.8-7.9,3.8c-5.4,0-8.9-2.9-8.9-7.9c0-6.1,5.3-7.2,8.6-7.8
				c3.9-0.6,8.1-0.9,8.1-4.1c0-2.7-2.9-3.5-5.6-3.5c-2.6,0-5.9,0.8-8.1,2.7l-1.9-3.2c2.6-1.9,6.4-3.2,10.3-3.2
				c5.6,0,9.5,2.5,9.5,7.9V415.9z M570.3,405.8v-3.8c-1.8,1.3-4.7,1.7-7.3,2.1c-3,0.5-5.2,1.3-5.2,4.3c0,3.2,2.4,4.4,5.3,4.4
				C566.8,412.8,570.3,410.8,570.3,405.8z M598.1,390.5l-1,3.8c-0.7-0.4-2-0.7-3.1-0.7c-3.7,0-6.9,3-6.9,9v13.3h-4.2v-25.8h4.2v3.8
				c1.4-2.5,4.3-4.3,7.5-4.3C596.1,389.6,597.4,390.1,598.1,390.5z M601.3,403.1c0-7.7,4.6-13.6,12.3-13.6c7.3,0,11.8,5.2,11.8,12.2
				c0,0.8,0,1.5-0.1,2h-19.6c0,5.6,3.6,8.9,8.4,8.9c2.9,0,5.5-1.1,7.4-3.5l2.8,2.6c-2.4,2.9-5.9,4.8-10.4,4.8
				C605.9,416.5,601.3,410.7,601.3,403.1z M605.8,400.5h15.3c-0.3-5-3.7-7.3-7.6-7.3C609.1,393.2,606.2,396.2,605.8,400.5z
				 M393.8,268.3c5.4-6.8,13.8-10.5,23.8-10.5c21.3,0,36.2,17.3,36.2,42.1c0,25-14.9,42.4-36.2,42.4c-9.9,0-18.3-3.8-23.8-10.7v8.9
				h-20.4V226.6h20.4V268.3z M413.4,324.2c14.1,0,19.1-12.4,19.1-24c0-11.8-5-24.3-19.1-24.3c-13.5,0-19.6,12.2-19.6,24.3
				C393.8,314.7,401.5,324.2,413.4,324.2z M458.6,340.4V226.6h20.7v113.8H458.6z M284.1,297.5l0,7.8h-57.2
				c0.4,11.6,8.3,18.7,20.6,18.7c8.3,0,15.3-3.3,20.3-9.5l0.5-0.6l13.3,12.5l-0.4,0.5c-8.6,10.3-20.3,15.5-34.7,15.5
				c-25.3,0-41.6-16.5-41.6-42c0-25.5,16.2-42.6,40.4-42.6C268.4,257.8,284.1,273.8,284.1,297.5z M227.5,290h36.7
				c-1.9-8.8-8.6-14.1-18.1-14.1C236.6,275.9,229.6,281.3,227.5,290z M367.4,297.5l0,7.8h-57.2c0.4,11.6,8.3,18.7,20.6,18.7
				c8.3,0,15.3-3.3,20.3-9.5l0.5-0.6l13.3,12.5l-0.4,0.5c-8.6,10.3-20.3,15.5-34.7,15.5c-25.3,0-41.6-16.5-41.6-42
				c0-25.5,16.2-42.6,40.4-42.6C351.8,257.8,367.4,273.8,367.4,297.5z M310.9,290h36.7c-1.9-8.8-8.6-14.1-18.1-14.1
				C320,275.9,312.9,281.3,310.9,290z M184.1,259.6h22L184,340.6h-23.5l-14.9-52l-15.2,52h-23.6l-0.1-0.5l-21.8-80.4H107l12.3,51.5
				l14.9-51.5H157l14.9,51.5L184.1,259.6z M545.1,259.8h22.1L524,373.3h-19.8l12.3-32.8l-32.1-80.7h23.2l18.8,53.9L545.1,259.8z"/>
		</g>
	</g>
</g>
</svg>
